<?xml version="1.0" encoding="UTF-8"?>
<svg width="40px" height="18px" viewBox="0 0 40 18" version="1.1" xmlns="http://www.w3.org/2000/svg" xmlns:xlink="http://www.w3.org/1999/xlink">
    <title>arrow-long-right</title>
    <g id="Page-1" stroke="none" stroke-width="1" fill="none" fill-rule="evenodd">
        <g id="arrow-long-right" transform="translate(0.250000, 0.231272)" fill="#000000" fill-rule="nonzero">
            <path d="M30.75,17.5187367 C30.5509335,17.5196684 30.3598839,17.4403647 30.22,17.2987285 C29.9275466,17.0059109 29.9275466,16.531546 30.22,16.2387285 L36.94,9.51872845 L0.75,9.51872845 C0.335786438,9.51872845 0,9.18294201 0,8.76872845 C0,8.35451489 0.335786438,8.01872845 0.75,8.01872845 L36.94,8.01872845 L30.22,1.29872845 C30.0193468,1.11175787 29.9367508,0.83017291 30.0046145,0.564439544 C30.0724781,0.298706177 30.2799777,0.0912065501 30.5457111,0.0233429105 C30.8114445,-0.0445207291 31.0930294,0.0380752748 31.28,0.238728452 L39.28,8.23872845 C39.351176,8.30527836 39.4059447,8.3874314 39.44,8.47872845 C39.5200995,8.66376532 39.5200995,8.87369158 39.44,9.05872845 C39.4059447,9.1500255 39.351176,9.23217854 39.28,9.29872845 L31.28,17.2987285 C31.1401161,17.4403647 30.9490665,17.5196684 30.75,17.5187367 Z" id="Path"></path>
        </g>
    </g>
</svg>